<svg xmlns="http://www.w3.org/2000/svg" viewBox="0 0 24 24">
  <path d="M12.55 16.51a.75.75 0 0 1-1.1 0l-4-4.38a.75.75 0 0 1 1.1-1.01l2.7 2.95V3a.75.75 0 0 1 1.5 0v11.07l2.7-2.95a.75.75 0 1 1 1.1 1.01l-4 4.38Z"/>
  <path d="M3.75 15a.75.75 0 0 0-1.5 0v.05c0 1.37 0 2.47.12 3.34.12.9.38 1.66.98 2.26.6.6 1.36.86 2.26.98.87.12 1.97.12 3.34.12h6.1c1.37 0 2.47 0 3.34-.12.9-.12 1.66-.38 2.26-.98.6-.6.86-1.36.98-2.26.12-.87.12-1.97.12-3.34V15a.75.75 0 0 0-1.5 0c0 1.44 0 2.44-.1 3.19-.1.73-.28 1.12-.56 1.4-.28.28-.67.46-1.4.56-.75.1-1.76.1-3.19.1H9c-1.44 0-2.44 0-3.19-.1-.73-.1-1.12-.28-1.4-.56-.28-.28-.46-.67-.56-1.4-.1-.75-.1-1.76-.1-3.19Z"/>
</svg>
